<svg xmlns="http://www.w3.org/2000/svg" width="255" height="208" fill="none"><path fill="url(#a)" d="M188.522 135.763a65.547 65.547 0 0 1-5.648 26.668 65.953 65.953 0 0 1-16.027 22.121 67.446 67.446 0 0 1-5.987 4.83 66.13 66.13 0 0 1-8.433 5.135h-.031c-.626.327-1.262.637-1.903.938a64.625 64.625 0 0 1-6.593 2.685c-1.539.509-3.119 1.019-4.714 1.437a67.281 67.281 0 0 1-28.216 1.319 63.956 63.956 0 0 1-3.303-.631l-.924-.209a66.098 66.098 0 0 1-14.513-5.218c-.39-.193-.775-.392-1.16-.591a66.339 66.339 0 0 1-25.48-23.475 65.74 65.74 0 0 1-10.082-33.034 65.703 65.703 0 0 1 8.07-33.575 66.267 66.267 0 0 1 24.018-24.95 66.864 66.864 0 0 1 33.409-9.514 66.887 66.887 0 0 1 33.682 8.518 66.306 66.306 0 0 1 24.758 24.226 65.722 65.722 0 0 1 9.077 33.32Z"/><path fill="url(#b)" d="M139.432 140.542c4.237 4.331 16.58 21.185 16.58 21.185l-7.582 11.04-6.818-21.933-2.18-10.292Z"/><path fill="url(#c)" d="M152.396 194.553c-.626.326-1.262.637-1.904.938-.292.142-.579.275-.877.407a64.326 64.326 0 0 1-5.715 2.278c-1.539.509-3.119 1.019-4.714 1.436a67.281 67.281 0 0 1-28.216 1.32 62.912 62.912 0 0 1-3.303-.632c-4.002 2.741-7.696 5.059-10.143 6.114l.2-1.697.831-7.097 1.924-16.512 7.624-7.322-17.14 1.32s1.8-24.812 8.829-29.918c7.028-5.105 14.4-9.68 14.4-9.68a9.64 9.64 0 0 0 2.868 1.269c2.437.669 4.971.926 7.495.759 3.006-.138 6.012-2.914 6.156-3.057 0 0 4.72.932 8.721 6.083a24.377 24.377 0 0 1 4.212 8.896c.985 3.765 2.734 12.559 4.725 23.182 1.303 6.837 2.672 14.418 4.027 21.913Z"/><path fill="url(#d)" d="m156.012 161.747 7.316 8.514 25.727-25.363.975-5.192 5.13-4.427-2.283 6.751v8.793s-19.843 31.946-25.312 33.591c-6.397 1.931-19.125-11.657-19.125-11.657l7.572-11.01Z"/><path fill="#7E57C2" d="m129.305 173.389 5.967 14.266 7.71-3.292-5.653-13.96-8.024 2.986Z"/><path fill="url(#e)" d="M137.616 182.606c-.959.784-2.391.601-4.166.692a10.243 10.243 0 0 0-6.464 2.517c-2.385 1.992-9.054 7.205-15.723 11.963-1.211.861-2.422 1.712-3.591 2.548-4.002 2.741-7.695 5.059-10.142 6.113a6.132 6.132 0 0 1-2.052.597c-3.427.086-4.161-7.047-4.371-12.738-.067-1.89-.082-3.617-.118-4.865-.144-4.993 0-14.266 0-14.266l17.139-1.325-1.816 11.79-.318 2.084v.015l5.13-1.885.159-.056 18.212-6.72 1.257-2.155.8 2.037h.077l7.798-1.018s.133 3.087-1.811 4.672Z"/><path fill="url(#f)" d="M133.681 108.25c-.446-1.212-.831-2.038-.944-2.282v-.061s-.395.968-3.37.733c-2.976-.234-3.961-1.701-3.961-1.701s.934 3.179-2.611 4.539c-3.411 1.315-4.755.464-4.848.403.18.193 2.847 3.026 1.078 5.273-1.832 2.328-5.951 1.87-5.951 1.87v.03a35.817 35.817 0 0 0 1.739 3.409 21.23 21.23 0 0 0 1.026 1.615v.036a11.627 11.627 0 0 0 3.591 3.653 17.48 17.48 0 0 1-5.238 9.756 25.37 25.37 0 0 0 2.868 1.269c1.913.718 4.483 1.432 6.777 1.233a10.74 10.74 0 0 0 6.884-3.526l-1.175-4.478-1.056-4.035c9.552-2.42 6.925-12.946 5.191-17.736Zm-5.725 17.883.169-.04.272-.077c-.395.17-.813.284-1.241.337.22-.056.446-.118.682-.189l.118-.031Z"/><path fill="url(#g)" d="M139.432 105.774c-3.94 3.597-5.643 2.583-5.751 2.487v-.011c-.446-1.212-.831-2.038-.939-2.282l-.025-.061s-.4.968-3.376.733c-2.975-.234-3.955-1.701-3.955-1.701s.933 3.179-2.611 4.539c-3.417 1.315-4.761.464-4.848.403.179.188 2.847 3.021 1.077 5.268-1.831 2.328-5.951 1.875-5.951 1.875v.025a35.9 35.9 0 0 0 1.739 3.414c.342.577.684 1.116 1.026 1.615v.036s-1.405 2.746-3.914 2.69c-2.509-.056-2.565-2.548-2.565-2.548s-1.775 3.179-7.259.117-1.826-7.499-1.826-7.499-3.89-2.955-3.89-7.383c0-4.427 6.054-7.795 6.054-7.795s-2.164-5.14 1.488-7.974c3.653-2.832 9.142-.912 9.142-.912s-.108-6.577 5.484-6.47c5.592.107 6.859 3.505 6.859 3.505s5.027-3.862 10.004-.224c4.976 3.638 2.929 9.981 2.929 9.981s5.217 4.427 1.108 8.172Z"/><path fill="#000" d="M129.587 130.006c-2.385-.749-6.628-3.608-6.628-3.608 1.675.176 3.366.087 5.012-.264l.17-.041.328-.097h.046l1.072 4.01ZM110.416 158.547l-2.313 15.285-1.816 11.79-4.228 3.49 9.199-3.317s-2.386-6.766-.842-27.248ZM107.656 200.3c1.093.24 2.191.448 3.304.632a39.09 39.09 0 0 1 .303-3.154l-3.607 2.522Z" opacity=".15"/><g filter="url(#h)"><path fill="#56CCF2" d="M85.422 10h-27.43c-3.785 0-6.854 3.047-6.854 6.807v27.242c0 3.76 3.069 6.807 6.854 6.807h27.43c3.786 0 6.854-3.047 6.854-6.807V16.807c0-3.76-3.068-6.807-6.853-6.807Z"/></g><rect width="22.104" height="11.734" x="61" y="30.898" fill="#fff" rx="4.4"/><path stroke="#fff" stroke-width="1.9" d="M65.496 30.898S64.518 18 72.048 18c7.53 0 6.987 12.91 6.987 12.91"/><g filter="url(#i)"><path fill="#F2C94C" d="M227.284 113h-27.43c-3.785 0-6.854 3.048-6.854 6.807v27.242c0 3.76 3.069 6.807 6.854 6.807h27.43c3.786 0 6.854-3.047 6.854-6.807v-27.242c0-3.759-3.068-6.807-6.854-6.807Z"/></g><path fill="#fff" d="m220.062 130.37 2.672-9.097a2.342 2.342 0 0 0-.156-2.21A2.276 2.276 0 0 0 220.66 118h-2.49l-.83 1.851a3.707 3.707 0 0 1-3.365 2.179 3.707 3.707 0 0 1-3.365-2.179l-.83-1.851h-2.012c-.877 0-1.694.452-2.169 1.2a2.646 2.646 0 0 0-.176 2.498l2.49 8.672-3.735 12.202a4.257 4.257 0 0 0 .632 3.717 4.128 4.128 0 0 0 3.314 1.711h11.756a4.132 4.132 0 0 0 3.312-1.712 4.259 4.259 0 0 0 .63-3.716l-3.76-12.202Z"/><g filter="url(#j)"><path fill="#F58A8A" d="M44.284 113h-27.43c-3.785 0-6.854 3.048-6.854 6.807v27.242c0 3.76 3.069 6.807 6.854 6.807h27.43c3.786 0 6.854-3.047 6.854-6.807v-27.242c0-3.759-3.068-6.807-6.854-6.807Z"/></g><path fill="#fff" d="M39.313 135.625A9.205 9.205 0 0 0 31 140.902a9.195 9.195 0 0 0-8.313-5.277h-4.812v.875c0 5.066 4.122 9.188 9.188 9.188h7.875c5.066 0 9.187-4.122 9.187-9.188v-.875h-4.813Zm-12.25 8.313c-3.806 0-6.953-2.873-7.387-6.563h3.012c3.805 0 6.952 2.872 7.386 6.563h-3.012Zm7.875 0h-3.012c.434-3.691 3.581-6.563 7.387-6.563h3.01c-.433 3.69-3.58 6.563-7.386 6.563Z"/><path fill="#fff" d="M26.255 133.37a4.775 4.775 0 0 0 1.342 2.595l.256.257h.363a4.774 4.774 0 0 0 2.784-.886 4.774 4.774 0 0 0 2.784.886h.363l.256-.256a4.778 4.778 0 0 0 1.342-2.595 4.778 4.778 0 0 0 2.596-1.343l.256-.256v-.363a4.778 4.778 0 0 0-.886-2.784 4.776 4.776 0 0 0 .886-2.784v-.363l-.256-.256a4.777 4.777 0 0 0-2.595-1.342 4.775 4.775 0 0 0-1.343-2.595l-.256-.257h-.362a4.775 4.775 0 0 0-2.785.886 4.774 4.774 0 0 0-2.784-.886h-.363l-.256.256a4.778 4.778 0 0 0-1.342 2.595 4.778 4.778 0 0 0-2.595 1.343l-.257.256v.363a4.778 4.778 0 0 0 .886 2.784 4.776 4.776 0 0 0-.886 2.784v.363l.256.256a4.77 4.77 0 0 0 2.596 1.342Zm-.205-5.364a3.037 3.037 0 0 1-.875-1.793 3.039 3.039 0 0 1 1.887-.65h.875v-.875a3.04 3.04 0 0 1 .65-1.888c.68.082 1.312.39 1.794.875l.619.619.619-.619a3.038 3.038 0 0 1 1.793-.875 3.04 3.04 0 0 1 .65 1.888v.875h.876a3.043 3.043 0 0 1 1.886.649 3.037 3.037 0 0 1-.874 1.794l-.619.619.619.619c.485.482.794 1.114.875 1.793a3.034 3.034 0 0 1-1.888.651h-.874v.875a3.04 3.04 0 0 1-.65 1.887 3.044 3.044 0 0 1-1.794-.875l-.619-.619-.619.619a3.044 3.044 0 0 1-1.794.875 3.039 3.039 0 0 1-.65-1.887v-.875h-.875a3.05 3.05 0 0 1-1.887-.65c.082-.68.39-1.312.875-1.794l.619-.619-.619-.619Z"/><g filter="url(#k)"><path fill="#6FCF97" d="M182.284 10h-27.43c-3.785 0-6.854 3.047-6.854 6.807v27.242c0 3.76 3.069 6.807 6.854 6.807h27.43c3.786 0 6.854-3.047 6.854-6.807V16.807c0-3.76-3.068-6.807-6.854-6.807Z"/></g><path fill="#fff" d="M175.122 16a22.23 22.23 0 0 1-13.248 0c-.479 1.125-1.874 4.662-1.874 7.971 0 4.55 1.464 17.28 1.464 17.28s3.012 2.688 7.036 2.749c4.02-.07 7.032-2.757 7.032-2.757S177 28.506 177 23.963c0-3.302-1.399-6.838-1.878-7.963Z"/><defs><linearGradient id="a" x1="122.273" x2="120.029" y1="76.865" y2="207.076" gradientUnits="userSpaceOnUse"><stop stop-color="#fff" stop-opacity="0"/><stop offset="1" stop-color="#64B5F6" stop-opacity=".6"/></linearGradient><linearGradient id="b" x1="134.41" x2="152.56" y1="136.165" y2="168.279" gradientUnits="userSpaceOnUse"><stop stop-color="#E57373"/><stop offset="1" stop-color="#AD1457"/></linearGradient><linearGradient id="c" x1="28141.2" x2="26229.2" y1="39794.5" y2="49295.9" gradientUnits="userSpaceOnUse"><stop stop-color="#E57373"/><stop offset="1" stop-color="#AD1457"/></linearGradient><linearGradient id="d" x1="202.122" x2="152.589" y1="147.94" y2="176.833" gradientUnits="userSpaceOnUse"><stop stop-color="#FFF8E1"/><stop offset="1" stop-color="#FFCC80"/></linearGradient><linearGradient id="e" x1="21652.4" x2="18981.7" y1="22319.6" y2="20506.4" gradientUnits="userSpaceOnUse"><stop stop-color="#FFF8E1"/><stop offset="1" stop-color="#FFCC80"/></linearGradient><linearGradient id="f" x1="138.704" x2="111.662" y1="113.439" y2="124.652" gradientUnits="userSpaceOnUse"><stop stop-color="#FFF8E1"/><stop offset="1" stop-color="#FFCC80"/></linearGradient><linearGradient id="g" x1="132.486" x2="101.053" y1="84.146" y2="126.911" gradientUnits="userSpaceOnUse"><stop stop-color="#FFB74D"/><stop offset="1" stop-color="#F4511E"/></linearGradient><filter id="h" width="71.138" height="70.856" x="41.138" y="0" color-interpolation-filters="sRGB" filterUnits="userSpaceOnUse"><feFlood flood-opacity="0" result="BackgroundImageFix"/><feColorMatrix in="SourceAlpha" result="hardAlpha" values="0 0 0 0 0 0 0 0 0 0 0 0 0 0 0 0 0 0 127 0"/><feOffset dx="5" dy="5"/><feGaussianBlur stdDeviation="7.5"/><feColorMatrix values="0 0 0 0 0 0 0 0 0 0 0 0 0 0 0 0 0 0 0.15 0"/><feBlend in2="BackgroundImageFix" result="effect1_dropShadow_1_198"/><feBlend in="SourceGraphic" in2="effect1_dropShadow_1_198" result="shape"/></filter><filter id="i" width="71.138" height="70.856" x="183" y="103" color-interpolation-filters="sRGB" filterUnits="userSpaceOnUse"><feFlood flood-opacity="0" result="BackgroundImageFix"/><feColorMatrix in="SourceAlpha" result="hardAlpha" values="0 0 0 0 0 0 0 0 0 0 0 0 0 0 0 0 0 0 127 0"/><feOffset dx="5" dy="5"/><feGaussianBlur stdDeviation="7.5"/><feColorMatrix values="0 0 0 0 0 0 0 0 0 0 0 0 0 0 0 0 0 0 0.15 0"/><feBlend in2="BackgroundImageFix" result="effect1_dropShadow_1_198"/><feBlend in="SourceGraphic" in2="effect1_dropShadow_1_198" result="shape"/></filter><filter id="j" width="71.138" height="70.856" x="0" y="103" color-interpolation-filters="sRGB" filterUnits="userSpaceOnUse"><feFlood flood-opacity="0" result="BackgroundImageFix"/><feColorMatrix in="SourceAlpha" result="hardAlpha" values="0 0 0 0 0 0 0 0 0 0 0 0 0 0 0 0 0 0 127 0"/><feOffset dx="5" dy="5"/><feGaussianBlur stdDeviation="7.5"/><feColorMatrix values="0 0 0 0 0 0 0 0 0 0 0 0 0 0 0 0 0 0 0.15 0"/><feBlend in2="BackgroundImageFix" result="effect1_dropShadow_1_198"/><feBlend in="SourceGraphic" in2="effect1_dropShadow_1_198" result="shape"/></filter><filter id="k" width="71.138" height="70.856" x="138" y="0" color-interpolation-filters="sRGB" filterUnits="userSpaceOnUse"><feFlood flood-opacity="0" result="BackgroundImageFix"/><feColorMatrix in="SourceAlpha" result="hardAlpha" values="0 0 0 0 0 0 0 0 0 0 0 0 0 0 0 0 0 0 127 0"/><feOffset dx="5" dy="5"/><feGaussianBlur stdDeviation="7.5"/><feColorMatrix values="0 0 0 0 0 0 0 0 0 0 0 0 0 0 0 0 0 0 0.15 0"/><feBlend in2="BackgroundImageFix" result="effect1_dropShadow_1_198"/><feBlend in="SourceGraphic" in2="effect1_dropShadow_1_198" result="shape"/></filter></defs></svg>