<svg xmlns="http://www.w3.org/2000/svg" width="202" height="132" fill="none"><path fill="url(#a)" d="M201.995 66a66.476 66.476 0 0 1-9.592 34.377 65.749 65.749 0 0 1-27.839 25.275 62.53 62.53 0 0 1-6.489 2.683 65.18 65.18 0 0 1-49.145-2.469 65.653 65.653 0 0 1-27.324-23.914A66.372 66.372 0 0 1 71.11 68.967a66.446 66.446 0 0 1 7.52-33.801 65.792 65.792 0 0 1 23.466-25.307A65.091 65.091 0 0 1 135.043.017a65.055 65.055 0 0 1 33.353 8.333 65.727 65.727 0 0 1 24.574 24.215 66.413 66.413 0 0 1 9.025 33.425V66Z"/><path fill="url(#b)" d="m110.854 106.742-7.231-11.387s20.031-23.343 22.035-24.723c0 0-10.104 17.088-14.804 36.11Z"/><path fill="url(#c)" d="M103.623 95.355 89.99 107.572 64.91 95.355l-19.188 1.06s11.951 4.071 15.314 3.903l3.368-.168s20.597 20.02 25.333 21.547c4.736 1.527 20.294-10.445 20.294-10.445l.903-4.474-7.311-11.423Z"/><path fill="url(#d)" d="M141.241 67.868a18.402 18.402 0 0 1-6.024 1.751c-2.419.367-6.095-.987-6.095-.987 2.777-2.204 2.131-7.402 2.131-7.402l.061-.03c2.964-.23 5.443-1.924 7.175-3.563-.626 4.449 2.752 10.231 2.752 10.231Z"/><path fill="url(#e)" d="M141.241 51.315v3.054a18.678 18.678 0 0 1-2.747 3.252c-1.732 1.645-4.211 3.34-7.175 3.564a9.022 9.022 0 0 1-3.959-.586c-8.079-3.054-2.398-19.215-2.398-19.215 2.565-6.577 14.178-3.396 14.178-3.396 1.555 1.868 1.853 7.086 1.793 7.595a10.075 10.075 0 0 1-1.01 2.036s2.206-2.097 2.964-.702c.757 1.394-1.646 4.398-1.646 4.398Z"/><path fill="#262F72" d="M141.241 54.379v-3.054s2.398-2.978 1.641-4.383c-.758-1.405-2.964.703-2.964.703.412-.638.751-1.321 1.01-2.037.06-.508-.192-5.43-1.793-7.594 0 0-11.613-3.181-14.179 3.395 0 0-3.322-.85-6.185-4.836-4.681-6.52.909-7.32 6.448-6.062 6.721 1.527 13.457-3.482 21.157 1.608 7.7 5.09.798 16.66-5.135 22.26Z"/><path fill="url(#f)" d="M158.707 92.459c3.453 10.364 6.013 22.361 7.761 32.242a52.76 52.76 0 0 1-1.904.951 62.53 62.53 0 0 1-6.489 2.683 65.18 65.18 0 0 1-49.145-2.469 66.879 66.879 0 0 1-1.702-.829 1824.822 1824.822 0 0 1 5.231-26.119c2.894-13.89 7.044-21.455 10.473-25.552l.035-.041a21.436 21.436 0 0 1 2.111-2.189.43.43 0 0 1 .07-.066c.172-.153.344-.295.505-.433 2.066-1.695 3.469-2.005 3.469-2.005l.127.045h.07c1.097.436 2.247.722 3.419.85h.227c.748.073 1.501.085 2.252.036h.045a14.277 14.277 0 0 0 5.949-1.73c2.15.717 4.176 1.77 6.003 3.12 5.221 3.863 15.739 18.03 15.739 18.03l-4.246 3.476Z"/><path fill="url(#g)" d="M177.94 111.802c-.031 1.415-1.308 4.286-3.176 7.768a64.936 64.936 0 0 1-8.302 5.131c-.626.33-1.262.646-1.903.951a62.77 62.77 0 0 1-6.489 2.683l4.878-15.673L150.325 99.3l8.377-6.84 4.246-3.467s15.123 17.337 14.992 22.809Z"/><path fill="#8F97B9" fill-rule="evenodd" d="M52.218 108.988 0 106.06V78.504l52.218 2.928v27.556Z" clip-rule="evenodd"/><path fill="#E5E8F5" fill-rule="evenodd" d="M52.218 81.466 0 78.494 47.712 62l52.218 2.972-47.712 16.494Z" clip-rule="evenodd"/><path fill="#BBC0D6" fill-rule="evenodd" d="m99.94 86.896-47.697 22.047-.02-27.477 47.702-16.617.014 22.047Z" clip-rule="evenodd"/><defs><linearGradient id="a" x1="136.788" x2="134.512" y1="7.167" y2="137.263" gradientUnits="userSpaceOnUse"><stop stop-color="#fff" stop-opacity="0"/><stop offset="1" stop-color="#64B5F6" stop-opacity=".6"/></linearGradient><linearGradient id="b" x1="116.231" x2="112.383" y1="68.209" y2="103.452" gradientUnits="userSpaceOnUse"><stop stop-color="#42A5F5"/><stop offset="1" stop-color="#1565C0"/></linearGradient><linearGradient id="c" x1="72.534" x2="114.455" y1="105.322" y2="110.833" gradientUnits="userSpaceOnUse"><stop stop-color="#FFE082"/><stop offset="1" stop-color="#FFA726"/></linearGradient><linearGradient id="d" x1="9427.78" x2="9430.77" y1="2544.52" y2="2315.66" gradientUnits="userSpaceOnUse"><stop stop-color="#FFE082"/><stop offset="1" stop-color="#FFA726"/></linearGradient><linearGradient id="e" x1="14997.3" x2="15790.5" y1="4075.82" y2="4075.82" gradientUnits="userSpaceOnUse"><stop stop-color="#FFE082"/><stop offset="1" stop-color="#FFA726"/></linearGradient><linearGradient id="f" x1="42958.6" x2="48857.7" y1="15103.6" y2="20773.6" gradientUnits="userSpaceOnUse"><stop stop-color="#42A5F5"/><stop offset="1" stop-color="#1565C0"/></linearGradient><linearGradient id="g" x1="23019.9" x2="22616.5" y1="12265.9" y2="9747.27" gradientUnits="userSpaceOnUse"><stop stop-color="#FFE082"/><stop offset="1" stop-color="#FFA726"/></linearGradient></defs></svg>